HIERARCHY
ROOT Hips
{
 OFFSET 0.000000 0.000000 0.000000
 CHANNELS 6 Xposition Yposition Zposition Yrotation Xrotation Zrotation
 JOINT Chest
 {
  OFFSET 0.000000 9.581000 -0.001100
  CHANNELS 3 Yrotation Xrotation Zrotation
  JOINT Chest2
  {
   OFFSET 0.000000 9.561100 0.002200
   CHANNELS 3 Yrotation Xrotation Zrotation
   JOINT Chest3
   {
    OFFSET 0.000000 9.521100 0.000000
    CHANNELS 3 Yrotation Xrotation Zrotation
    JOINT Chest4
    {
     OFFSET 0.000000 9.511400 0.000000
     CHANNELS 3 Yrotation Xrotation Zrotation
     JOINT Neck
     {
      OFFSET 0.000000 14.375100 0.000000
      CHANNELS 3 Yrotation Xrotation Zrotation
      JOINT Head
      {
       OFFSET 0.000000 8.901200 0.004600
       CHANNELS 3 Yrotation Xrotation Zrotation
       End Site
       {
        OFFSET 0.000000 16.962200 0.002400
       }
      }
     }
     JOINT RightCollar
     {
      OFFSET -2.920100 9.518800 0.000000
      CHANNELS 3 Yrotation Xrotation Zrotation
      JOINT RightShoulder
      {
       OFFSET -13.664500 0.000000 0.000000
       CHANNELS 3 Yrotation Xrotation Zrotation
       JOINT RightElbow
       {
        OFFSET 0.000000 -29.999200 0.000000
        CHANNELS 3 Yrotation Xrotation Zrotation
        JOINT RightWrist
        {
         OFFSET 0.000000 -24.253600 0.000000
         CHANNELS 3 Yrotation Xrotation Zrotation
         End Site
         {
          OFFSET 0.000000 -17.918900 0.000000
         }
        }
       }
      }
     }
     JOINT LeftCollar
     {
      OFFSET 2.920100 9.518800 0.000000
      CHANNELS 3 Yrotation Xrotation Zrotation
      JOINT LeftShoulder
      {
       OFFSET 13.664500 0.000000 0.000000
       CHANNELS 3 Yrotation Xrotation Zrotation
       JOINT LeftElbow
       {
        OFFSET 0.000000 -29.999200 0.000000
        CHANNELS 3 Yrotation Xrotation Zrotation
        JOINT LeftWrist
        {
         OFFSET 0.000000 -24.253600 0.000000
         CHANNELS 3 Yrotation Xrotation Zrotation
         End Site
         {
          OFFSET 0.000000 -17.918900 0.000000
         }
        }
       }
      }
     }
    }
   }
  }
 }
 JOINT RightHip
 {
  OFFSET -7.797300 0.005300 0.000500
  CHANNELS 3 Yrotation Xrotation Zrotation
  JOINT RightKnee
  {
   OFFSET 0.000000 -40.663400 -0.000500
   CHANNELS 3 Yrotation Xrotation Zrotation
   JOINT RightAnkle
   {
    OFFSET 0.000000 -39.523700 -0.000900
    CHANNELS 3 Yrotation Xrotation Zrotation
    JOINT RightToe
    {
     OFFSET 0.000000 -6.418000 14.485300
     CHANNELS 3 Yrotation Xrotation Zrotation
     End Site
     {
      OFFSET 0.000000 -1.465200 6.326400
     }
    }
   }
  }
 }
 JOINT LeftHip
 {
  OFFSET 7.797300 0.005300 0.000500
  CHANNELS 3 Yrotation Xrotation Zrotation
  JOINT LeftKnee
  {
   OFFSET 0.000000 -40.663400 -0.000500
   CHANNELS 3 Yrotation Xrotation Zrotation
   JOINT LeftAnkle
   {
    OFFSET 0.000000 -39.523700 -0.000900
    CHANNELS 3 Yrotation Xrotation Zrotation
    JOINT LeftToe
    {
     OFFSET 0.000000 -6.418000 14.485300
     CHANNELS 3 Yrotation Xrotation Zrotation
     End Site
     {
      OFFSET 0.000000 -1.465200 6.326400
     }
    }
   }
  }
 }
}
MOTION
Frames: 8
Frame Time: 0.008333
-23.532743 126.386161 52.961104 179.882091 -27.486680 -3.289873 -2.092121 19.266521 1.002463 -0.266348 2.313934 0.156798 -0.424015 3.783970 0.267072 -1.812122 16.654832 0.922381 -1.238196 15.355007 -3.439017 -0.521050 -9.568607 -3.338761 -5.798591 -7.508630 -3.813403 -15.607763 -1.363604 -3.837734 -99.863917 -68.609434 107.810454 -12.908692 -0.636555 5.840260 -8.676567 -4.973539 2.830250 15.259145 -4.401692 3.371772 73.656552 -51.859630 -76.936164 20.961744 -19.478579 8.517869 -8.388533 -54.061154 4.617479 -13.042765 70.871168 -15.503535 17.573290 11.917566 5.433204 -0.001490 -0.003612 -0.000660 -11.458875 -54.835041 -0.225844 37.324535 67.243745 28.399676 -0.539643 35.501502 2.273385 -0.006065 -0.001602 -0.002687
-23.532364 126.384878 52.959898 179.876320 -27.470271 -3.288587 -2.078674 19.238938 1.018191 -0.264983 2.307737 0.158313 -0.425825 3.773760 0.268149 -1.803464 16.634355 0.934197 -1.253488 15.345931 -3.460729 -0.508965 -9.691447 -3.370159 -5.779174 -7.573243 -3.884810 -15.620053 -1.311527 -3.937166 -100.758367 -68.793141 108.828075 -12.853743 -0.674992 5.771632 -8.658756 -4.997190 2.872198 15.305557 -4.366008 3.411114 74.137100 -52.598348 -77.589992 20.849844 -19.454084 8.498422 -8.378085 -54.077953 4.618072 -13.077440 70.873777 -15.539212 17.573798 11.909663 5.439351 -0.004420 -0.002308 -0.001958 -11.417182 -54.845914 -0.226304 37.317829 67.243071 28.378599 -0.552438 35.508593 2.293845 -0.005280 -0.003190 -0.002339
-23.531055 126.383519 52.959090 179.870174 -27.451019 -3.291109 -2.071023 19.209649 1.035613 -0.263494 2.300846 0.159377 -0.423120 3.770376 0.265162 -1.802615 16.630257 0.936816 -1.235144 15.232272 -3.481699 -0.506987 -9.727431 -3.397164 -5.757530 -7.664528 -3.948505 -15.623929 -1.268970 -4.041256 -101.677677 -68.946873 109.869812 -12.808147 -0.702481 5.721561 -8.631820 -5.039411 2.927187 15.365038 -4.332828 3.467018 74.652407 -53.281964 -78.334653 20.771694 -19.424142 8.472234 -8.370995 -54.096807 4.624303 -13.095483 70.872969 -15.554386 17.602100 11.909135 5.440016 0.003072 -0.002194 0.001361 -11.370370 -54.859777 -0.225981 37.300609 67.243056 28.352576 -0.555136 35.521316 2.304507 -0.005324 -0.003562 -0.002359
-23.530406 126.382209 52.958415 179.866774 -27.431099 -3.289809 -2.058414 19.174551 1.054455 -0.257670 2.283657 0.162193 -0.438271 3.795603 0.250927 -1.795875 16.612926 0.944497 -1.215398 15.121802 -3.512909 -0.502578 -9.760580 -3.426698 -5.744855 -7.755756 -4.015305 -15.625945 -1.242335 -4.149897 -102.595790 -69.034560 110.927686 -12.771468 -0.731672 5.665527 -8.623569 -5.048324 2.949584 15.447118 -4.339125 3.561377 75.217959 -53.859206 -79.190231 20.748699 -19.411219 8.451558 -8.367618 -54.116553 4.635753 -13.136250 70.872701 -15.597060 17.563588 11.912992 5.430376 -0.002734 -0.001343 -0.001211 -11.305250 -54.876585 -0.247694 37.243662 67.249790 28.310623 -0.562397 35.530934 2.301872 0.002155 -0.005145 0.000955
-23.531170 126.381809 52.956261 179.866235 -27.422224 -3.280734 -2.059951 19.163059 1.047937 -0.247578 2.267485 0.165950 -0.440096 3.785818 0.254307 -1.788949 16.590731 0.949961 -1.212372 15.066934 -3.554525 -0.492053 -9.818366 -3.463943 -5.744028 -7.818720 -4.087830 -15.639821 -1.230874 -4.264350 -103.494876 -69.037658 111.999823 -12.748208 -0.779583 5.582145 -8.625871 -5.029657 2.965728 15.526027 -4.345266 3.664198 75.869798 -54.312041 -80.175415 20.765577 -19.436632 8.453817 -8.354946 -54.126068 4.626595 -13.123899 70.877085 -15.602578 17.561908 11.904439 5.447718 -0.006650 -0.000961 -0.002946 -11.257258 -54.884930 -0.273933 37.288556 67.238579 28.332956 -0.565323 35.539546 2.335014 -0.007430 -0.006652 -0.003292
-23.531123 126.381640 52.954290 179.868749 -27.414457 -3.277872 -2.051151 19.143892 1.054896 -0.246482 2.257420 0.160995 -0.422168 3.746438 0.258792 -1.775147 16.551260 0.953083 -1.233647 15.060939 -3.591874 -0.481538 -9.873784 -3.502779 -5.770813 -7.830221 -4.149291 -15.670671 -1.228279 -4.389087 -104.389023 -68.955722 113.104292 -12.745725 -0.854422 5.464225 -8.618155 -5.014522 3.061003 15.558972 -4.277984 3.711744 76.637491 -54.654853 -81.290364 20.785194 -19.492505 8.469580 -8.344569 -54.134693 4.619227 -13.149351 70.878849 -15.636026 17.602022 11.898616 5.458615 -0.000122 -0.001100 -0.000054 -11.215181 -54.891827 -0.295381 37.325412 67.228220 28.351518 -0.570700 35.548093 2.367862 -0.016613 -0.008938 -0.007360
-23.531553 126.380388 52.954906 179.873538 -27.391953 -3.273621 -2.048261 19.106151 1.053705 -0.240375 2.248861 0.157631 -0.429739 3.753308 0.260500 -1.757639 16.513166 0.950688 -1.231389 15.007611 -3.627599 -0.471039 -9.928738 -3.541546 -5.778525 -7.888469 -4.196073 -15.716347 -1.225388 -4.528783 -105.298167 -68.793753 114.253259 -12.755388 -0.952109 5.322268 -8.622926 -4.991904 3.105508 15.618615 -4.272563 3.814021 77.518359 -54.931416 -82.526393 20.782226 -19.563108 8.479947 -8.342492 -54.159686 4.620390 -13.181437 70.882326 -15.675182 17.580359 11.897120 5.457356 -0.002462 -0.001424 -0.001091 -11.130617 -54.908404 -0.340774 37.277701 67.225031 28.313483 -0.584510 35.553875 2.394154 -0.012936 -0.010199 -0.005730
-23.530908 126.380439 52.953619 179.880685 -27.385520 -3.277517 -2.038181 19.083184 1.058733 -0.238060 2.241166 0.153852 -0.437484 3.760042 0.264544 -1.747955 16.489151 0.947713 -1.223516 14.939362 -3.667005 -0.459231 -9.986669 -3.579321 -5.778074 -7.965150 -4.238292 -15.771717 -1.216355 -4.683604 -106.227125 -68.561283 115.436942 -12.761631 -1.056728 5.178392 -8.607683 -5.008553 3.170314 15.671975 -4.236635 3.908822 78.487638 -55.200066 -83.868303 20.748780 -19.642140 8.474096 -8.349581 -54.165604 4.625877 -13.186935 70.885139 -15.689914 17.580517 11.894530 5.465124 -0.003537 -0.002624 -0.001567 -10.973698 -54.896421 -0.436672 37.119702 67.225608 28.221342 -0.602529 35.563812 2.376097 0.001851 -0.004876 0.000820
